<svg width="48" height="48" viewBox="0 0 48 48" fill="none" xmlns="http://www.w3.org/2000/svg">
<path d="M11.6308 19.8549C11.8259 19.8549 12.019 19.8165 12.1993 19.7418C12.3795 19.6672 12.5433 19.5578 12.6812 19.4198C12.8192 19.2819 12.9286 19.1182 13.0032 18.9379C13.0779 18.7577 13.1163 18.5645 13.1163 18.3695C13.1163 15.6116 14.2119 12.9667 16.162 11.0166C18.112 9.0665 20.757 7.97094 23.5148 7.97094C26.2727 7.97094 28.9177 9.0665 30.8677 11.0166C32.8179 12.9667 33.9134 15.6116 33.9134 18.3695C33.9172 18.7609 34.0755 19.1349 34.3537 19.4103C34.6317 19.6857 35.0074 19.8402 35.3989 19.8402C35.7903 19.8402 36.1659 19.6857 36.444 19.4103C36.7222 19.1349 36.8805 18.7609 36.8843 18.3695C36.8843 16.6138 36.5385 14.8753 35.8667 13.2532C35.1947 11.6311 34.21 10.1573 32.9685 8.91582C31.7269 7.67435 30.2531 6.68956 28.6311 6.01769C27.009 5.34581 25.2706 5 23.5148 5C21.7591 5 20.0207 5.34581 18.3986 6.01769C16.7765 6.68956 15.3027 7.67435 14.0612 8.91582C12.8197 10.1573 11.835 11.6311 11.1631 13.2532C10.4912 14.8753 10.1454 16.6138 10.1454 18.3695C10.1454 18.7634 10.3019 19.1412 10.5804 19.4198C10.859 19.6984 11.2368 19.8549 11.6308 19.8549Z" fill="#1A1E2C"/>
<path d="M42.5293 22.8258H29.452C30.4202 21.5421 30.9432 19.9775 30.9415 18.3695C30.9415 16.3996 30.1589 14.5103 28.7661 13.1174C27.3731 11.7245 25.4838 10.942 23.5139 10.942C21.5442 10.942 19.655 11.7245 18.262 13.1174C16.869 14.5103 16.0865 16.3996 16.0865 18.3695C16.0865 18.7635 16.243 19.1413 16.5216 19.4199C16.8002 19.6985 17.1781 19.855 17.5721 19.855C17.9661 19.855 18.344 19.6985 18.6225 19.4199C18.9011 19.1413 19.0576 18.7635 19.0576 18.3695C19.0576 17.488 19.3189 16.6264 19.8086 15.8935C20.2983 15.1606 20.9943 14.5894 21.8086 14.2521C22.6229 13.9148 23.519 13.8265 24.3834 13.9984C25.2479 14.1704 26.0421 14.5948 26.6652 15.218C27.2885 15.8413 27.713 16.6354 27.885 17.4998C28.0569 18.3643 27.9687 19.2604 27.6314 20.0746C27.294 20.889 26.7229 21.5851 25.99 22.0748C25.2571 22.5645 24.3955 22.8258 23.5141 22.8258H4.50039C4.30407 22.8239 4.1093 22.8608 3.92735 22.9347C3.7454 23.0084 3.57989 23.1175 3.44037 23.2556C3.30085 23.3938 3.19009 23.5581 3.1145 23.7393C3.03892 23.9206 3 24.115 3 24.3113C3 24.5075 3.03892 24.702 3.1145 24.8832C3.19009 25.0644 3.30085 25.2287 3.44037 25.367C3.57989 25.505 3.7454 25.6142 3.92735 25.6879C4.1093 25.7617 4.30407 25.7987 4.50039 25.7967H42.5293C42.9207 25.7929 43.2947 25.6346 43.5701 25.3564C43.8455 25.0784 44 24.7027 44 24.3113C44 23.9198 43.8455 23.5442 43.5701 23.2661C43.2947 22.9879 42.9207 22.8297 42.5293 22.8258Z" fill="#0346F2"/>
<path d="M35.3692 28.942C35.1741 28.942 34.981 28.9803 34.8007 29.055C34.6205 29.1296 34.4567 29.239 34.3188 29.377C34.1808 29.5149 34.0714 29.6786 33.9968 29.8589C33.9221 30.0391 33.8837 30.2323 33.8837 30.4274C33.8837 33.1852 32.7881 35.8301 30.838 37.7802C28.888 39.7303 26.243 40.8259 23.4852 40.8259C20.7273 40.8259 18.0823 39.7303 16.1323 37.7802C14.1821 35.8301 13.0866 33.1852 13.0866 30.4274C13.0828 30.036 12.9245 29.6619 12.6463 29.3865C12.3683 29.1111 11.9926 28.9566 11.6011 28.9566C11.2097 28.9566 10.8341 29.1111 10.556 29.3865C10.2778 29.6619 10.1195 30.036 10.1157 30.4274C10.1157 32.1831 10.4615 33.9216 11.1333 35.5436C11.8053 37.1657 12.79 38.6395 14.0315 39.881C15.2731 41.1225 16.7469 42.1072 18.3689 42.7791C19.991 43.451 21.7294 43.7968 23.4852 43.7968C25.2409 43.7968 26.9793 43.451 28.6014 42.7791C30.2235 42.1072 31.6973 41.1225 32.9388 39.881C34.1803 38.6395 35.165 37.1657 35.8369 35.5436C36.5088 33.9216 36.8546 32.1831 36.8546 30.4274C36.8546 30.0334 36.6981 29.6556 36.4196 29.377C36.141 29.0985 35.7632 28.942 35.3692 28.942Z" fill="#1A1E2C"/>
<path d="M4.47071 25.971H17.548C16.5798 27.2547 16.0568 28.8193 16.0585 30.4274C16.0585 32.3973 16.8411 34.2865 18.2339 35.6794C19.6269 37.0723 21.5162 37.8549 23.4861 37.8549C25.4558 37.8549 27.345 37.0723 28.738 35.6794C30.131 34.2865 30.9135 32.3973 30.9135 30.4274C30.9135 30.0334 30.757 29.6555 30.4784 29.3769C30.1998 29.0983 29.8219 28.9418 29.4279 28.9418C29.0339 28.9418 28.656 29.0983 28.3775 29.3769C28.0989 29.6555 27.9424 30.0334 27.9424 30.4274C27.9424 31.3088 27.6811 32.1704 27.1914 32.9033C26.7017 33.6362 26.0057 34.2074 25.1914 34.5447C24.3771 34.882 23.481 34.9703 22.6166 34.7984C21.7521 34.6264 20.9579 34.202 20.3348 33.5788C19.7115 32.9555 19.287 32.1615 19.115 31.297C18.9431 30.4325 19.0313 29.5364 19.3686 28.7222C19.706 27.9078 20.2771 27.2117 21.01 26.722C21.7429 26.2323 22.6045 25.971 23.4859 25.971H42.4996C42.6959 25.9729 42.8907 25.936 43.0726 25.8622C43.2546 25.7885 43.4201 25.6793 43.5596 25.5412C43.6992 25.403 43.8099 25.2387 43.8855 25.0575C43.9611 24.8762 44 24.6818 44 24.4855C44 24.2893 43.9611 24.0948 43.8855 23.9136C43.8099 23.7324 43.6992 23.5681 43.5596 23.4299C43.4201 23.2918 43.2546 23.1826 43.0726 23.1089C42.8907 23.0351 42.6959 22.9981 42.4996 23.0001H4.47071C4.07935 23.0039 3.70533 23.1622 3.42993 23.4404C3.15453 23.7184 3 24.0941 3 24.4855C3 24.877 3.15453 25.2526 3.42993 25.5307C3.70533 25.8089 4.07935 25.9672 4.47071 25.971Z" fill="#0346F2"/>
</svg>
